P2
3 2
255
29 76 
149 225 
27 22 
