P3
3 2
255
0 0 255 255 0 0 0 255 0
255 255 0 75 0 45 15 31 0